# xmcd
#
# Track frame offsets:
#	150
#	14467
#	31442
#	48342
#	68182
#	90357
#	107090
#	126465
#	146130
#	164807
#	180457
#	197680
#
# Disc length: 2849 seconds
#
# Revision: 0
# Processed by: cddbd v1.4PL0 Copyright (c) Steve Scherf et al.
# Submitted via: EasyCDDAExtractor 4.6.0.1
#
DISCID=ab0b1f0c
DTITLE=Big Mama E and the Cool - high maintenance
DYEAR=2002
DGENRE=RnB
TTITLE0=bullet train
TTITLE1=payback
TTITLE2=not alone
TTITLE3=into a small town
TTITLE4=bittersweet
TTITLE5=nothing sacred
TTITLE6=ground to cover
TTITLE7=the seed
TTITLE8=blues for noah
TTITLE9=so far
TTITLE10=running away
TTITLE11=another side
EXTD=
EXTT0=
EXTT1=
EXTT2=
EXTT3=
EXTT4=
EXTT5=
EXTT6=
EXTT7=
EXTT8=
EXTT9=
EXTT10=
EXTT11=
PLAYORDER=
